<svg id="body-bg" xmlns="http://www.w3.org/2000/svg" xmlns:xlink="http://www.w3.org/1999/xlink" viewBox="0 0 770.6 661.5" width="1048" height="900">
    <style>
        .st0{clip-path:url(#body-bg-path-2);fill:rgba(255,255,255,.4);}
    </style>
    <defs>
        <path id="body-bg-path-2" d="M0 0h770.6v661.5H0z"/>
    </defs>
    <clipPath id="body-bg-path-2">
        <use xlink:href="#body-bg-path-2" overflow="visible"/>
    </clipPath>
    <path class="st0" d="M112.6 19.8s-20.4 30-23.2 66c-2.8 35.9 12.7 68.7 12.7 68.7s20.4-30 23.2-65.9c2.8-36-12.7-68.8-12.7-68.8m84.8 82.3s-35 9.8-60.3 35.5c-25.3 25.7-34.6 60.7-34.6 60.7s35-9.8 60.3-35.5c25.3-25.6 34.6-60.7 34.6-60.7m-60.3 92.2s-29.8 20.8-45.2 53.3c-15.4 32.6-12.6 68.8-12.6 68.8s29.8-20.8 45.2-53.3c15.4-32.6 12.6-68.8 12.6-68.8M55.7 91.5s-12.1 34.2-5.6 69.7c6.4 35.4 29.8 63.2 29.8 63.2s12.1-34.2 5.6-69.7C79 119.3 55.7 91.5 55.7 91.5M6 167.4s.1 36.3 18 67.5c18 31.2 49.3 49.6 49.3 49.6s-.1-36.3-18-67.5C37.3 185.8 6 167.4 6 167.4m-.2 92.3s4.4 36 25.9 65c21.5 28.9 54.8 43.5 54.8 43.5s-4.4-36-25.9-65-54.8-43.5-54.8-43.5m100.6 49.8s-11.3 34.5-4 69.8 31.3 62.5 31.3 62.5 11.3-34.5 4-69.8c-7.3-35.2-31.3-62.5-31.3-62.5M0 344s14.3 33.4 43 55.1c28.7 21.7 64.7 26.4 64.7 26.4s-14.3-33.4-43-55.1C36 348.6 0 344 0 344m58.7 87.3s16.6 32.3 46.7 52c30.2 19.7 66.4 21.8 66.4 21.8s-16.6-32.3-46.7-52c-30.2-19.6-66.4-21.8-66.4-21.8m189.1 76.6s16.6 32.3 46.7 52c30.2 19.7 66.4 21.8 66.4 21.8s-16.6-32.3-46.7-52c-30.2-19.7-66.4-21.8-66.4-21.8M72.3 529s29.5 21.2 65.3 25c35.8 3.8 69.1-10.9 69.1-10.9s-29.5-21.2-65.3-25c-35.9-3.7-69.1 10.9-69.1 10.9m81.2 58.3s32.9 15.3 68.8 12.3 65.8-23.6 65.8-23.6-32.9-15.3-68.8-12.3-65.8 23.6-65.8 23.6m8.8-167s-.7 36.3 16.6 67.9c17.3 31.6 48.2 50.6 48.2 50.6s.7-36.3-16.6-67.9c-17.3-31.6-48.2-50.6-48.2-50.6m238.1 187.1c-.7-4 27.7-.7 27.7-.7s4.5-12.5-15.7-8.6c-17 3.3-21.9 3.4-29.2 3.4-7.4 0-11-.6-28-4-20.1-3.9-18.8 9.5-18.8 9.5s30.3-3.5 29.6.5c-1.9 11.3-48.4 46.4-48.4 46.4l8 7.7s17-10.3 35-32c10.4-12.5 14.7-22.3 22.5-22.1 6.1.1 12.4 9.7 22.7 22 18 21.7 35 32 35 32l8-7.7c0-.1-46.5-35.1-48.4-46.4"/>
    <path class="st0" d="M225.6 625s34.4 11.6 69.8 4.7c35.4-6.9 62.8-30.7 62.8-30.7s-34.4-11.6-69.8-4.7c-35.3 6.9-62.8 30.7-62.8 30.7M658 19.8s20.4 30 23.2 66c2.8 35.9-12.7 68.7-12.7 68.7s-20.4-30-23.2-65.9c-2.8-36 12.7-68.8 12.7-68.8M565 0s31.6 18 49.9 49c18.3 31 18.9 67.3 18.9 67.3s-31.6-18-49.9-49C565.6 36.3 565 0 565 0m8.2 102.1s35 9.8 60.3 35.5c25.3 25.7 34.6 60.7 34.6 60.7s-35-9.8-60.3-35.5c-25.3-25.6-34.6-60.7-34.6-60.7m60.3 92.2s29.8 20.8 45.2 53.3c15.4 32.6 12.6 68.8 12.6 68.8s-29.8-20.8-45.2-53.3c-15.4-32.6-12.6-68.8-12.6-68.8M715 91.5s12.1 34.2 5.6 69.7c-6.4 35.4-29.8 63.2-29.8 63.2s-12.1-34.2-5.6-69.7c6.4-35.4 29.8-63.2 29.8-63.2m49.7 75.9s-.1 36.3-18 67.5c-18 31.2-49.3 49.6-49.3 49.6s.1-36.3 18-67.5c17.9-31.2 49.3-49.6 49.3-49.6m.1 92.3s-4.4 36-25.9 65c-21.5 28.9-54.8 43.5-54.8 43.5s4.4-36 25.9-65 54.8-43.5 54.8-43.5m-100.5 49.8s11.3 34.5 4 69.8c-7.3 35.3-31.3 62.5-31.3 62.5s-11.3-34.5-4-69.8c7.2-35.2 31.3-62.5 31.3-62.5M770.6 344s-14.3 33.4-43 55.1c-28.7 21.7-64.7 26.4-64.7 26.4s14.3-33.4 43-55.1c28.7-21.8 64.7-26.4 64.7-26.4M712 431.3s-16.6 32.3-46.7 52c-30.2 19.7-66.4 21.8-66.4 21.8s16.6-32.3 46.7-52c30.1-19.6 66.4-21.8 66.4-21.8m-189.2 76.6s-16.6 32.3-46.7 52c-30.2 19.7-66.4 21.8-66.4 21.8s16.6-32.3 46.7-52c30.2-19.7 66.4-21.8 66.4-21.8M698.4 529s-29.5 21.2-65.3 25c-35.8 3.8-69.1-10.9-69.1-10.9s29.5-21.2 65.3-25c35.8-3.7 69.1 10.9 69.1 10.9m-81.3 58.3s-32.9 15.3-68.8 12.3-65.8-23.6-65.8-23.6 32.9-15.3 68.8-12.3 65.8 23.6 65.8 23.6M545 625s-34.4 11.6-69.8 4.7c-35.4-6.9-62.8-30.7-62.8-30.7s34.4-11.6 69.8-4.7C517.6 601.2 545 625 545 625m63.4-204.7s.7 36.3-16.6 67.9c-17.3 31.6-48.2 50.6-48.2 50.6s-.7-36.3 16.6-67.9c17.2-31.6 48.2-50.6 48.2-50.6M205.6 0S174 18 155.7 49c-18.3 31-18.9 67.3-18.9 67.3s31.6-18 49.9-49C205 36.3 205.6 0 205.6 0"/>
</svg>