<?xml version="1.0" encoding="UTF-8" standalone="no"?>
<!DOCTYPE svg PUBLIC "-//W3C//DTD SVG 1.1//EN" "http://www.w3.org/Graphics/SVG/1.1/DTD/svg11.dtd">
<svg width="100%" height="100%" viewBox="0 0 314 119" version="1.1" xmlns="http://www.w3.org/2000/svg" xmlns:xlink="http://www.w3.org/1999/xlink" xml:space="preserve" xmlns:serif="http://www.serif.com/" style="fill-rule:evenodd;clip-rule:evenodd;stroke-linejoin:round;stroke-miterlimit:2;">
    <g id="Artboard1" transform="matrix(-0.777432,0,0,0.54413,343.515,-78.1819)">
        <rect x="38.008" y="143.682" width="403.85" height="217.487" style="fill:none;"/>
        <clipPath id="_clip1">
            <rect x="38.008" y="143.682" width="403.85" height="217.487"/>
        </clipPath>
        <g clip-path="url(#_clip1)">
            <g id="OBJECTS" transform="matrix(1.28629,0,0,1.8378,-18.9259,130.298)">
                <g transform="matrix(1,0,0,1,44.6019,16.3193)">
                    <path d="M0,80.833C0,83.833 3.334,90.833 8.667,90.833L48.333,90.833C53.667,90.833 59,87.166 66.5,87.166L286.083,87.166C290.833,87.166 302.167,84.166 307.167,80.833C312.167,77.5 312.667,76.666 312.667,74.5L312.667,61.333C312.667,59.333 306.667,57.166 306.667,53.666L306.667,34.333C306.667,29.333 261.667,-2.667 247.333,-6.167C233,-9.667 170.167,-10 153.333,-8.5C136.5,-7 100.334,10.833 77.5,27.666C53,27.666 26.667,33.822 15.167,40.744C3.667,47.666 0,59.5 0,64.5L0,80.833Z" style="fill:rgb(255,186,0);fill-rule:nonzero;"/>
                </g>
                <g transform="matrix(-1.3e-06,29.0578,29.0578,1.3e-06,200.936,48.9775)">
                    <path d="M0.733,-5.278C0.878,-5.351 1.014,-5.38 1.096,-5.38L1.658,-5.38C1.761,-5.38 2.002,-5.265 2.002,-5.082L2.002,-3.717C2.002,-3.533 1.876,-3.35 1.876,-3.092L1.876,4.465C1.876,4.629 1.773,5.019 1.658,5.191C1.543,5.363 1.514,5.38 1.44,5.38L0.987,5.38C0.918,5.38 0.843,5.174 0.723,5.174L0.13,5.174L0.733,-5.278Z" style="fill:url(#_Linear2);fill-rule:nonzero;"/>
                </g>
                <g transform="matrix(1,0,0,1,223.267,56.2292)">
                    <path d="M0,-0.283C2.4,-25.813 5.85,-40.658 6.281,-42.456C6.103,-42.455 5.937,-42.454 5.768,-42.454C5.23,-40.2 1.861,-25.414 -0.498,-0.33C-2.865,24.862 -0.868,39.96 -0.54,42.173L-0.035,42.173C-0.324,40.25 -2.39,25.138 0,-0.283" style="fill:rgb(240,148,0);fill-rule:nonzero;"/>
                </g>
                <g transform="matrix(1,0,0,1,134.49,54.4921)">
                    <path d="M0,-2.103C0.904,-3.033 1.209,-4.6 0.837,-6.403C0.369,-8.676 -1.043,-10.77 -2.521,-11.383L-2.712,-10.921C-1.377,-10.368 -0.09,-8.425 0.348,-6.302C0.685,-4.664 0.428,-3.26 -0.358,-2.452C-1.854,-0.913 -12.399,0.693 -31.7,2.322C-36.069,2.691 -38.831,2.76 -41.754,2.834C-45.111,2.918 -48.581,3.005 -54.867,3.536C-65.143,4.404 -73.471,6.668 -77.945,7.884C-78.648,8.075 -79.264,8.243 -79.783,8.376C-80.863,8.655 -81.629,8.76 -82.175,8.775C-82.316,8.934 -82.446,9.095 -82.583,9.255C-82.492,9.261 -82.421,9.28 -82.323,9.28C-81.631,9.28 -80.741,9.14 -79.658,8.861C-79.137,8.726 -78.52,8.559 -77.813,8.366C-73.355,7.154 -65.056,4.898 -54.825,4.034C-48.554,3.505 -45.091,3.418 -41.742,3.334C-38.811,3.26 -36.042,3.19 -31.658,2.82C-11.96,1.158 -1.604,-0.453 0,-2.103" style="fill:rgb(240,148,0);fill-rule:nonzero;"/>
                </g>
                <g transform="matrix(1,0,0,1,285.856,46.7906)">
                    <path d="M0,18.265L-0.208,18.607C-3.251,23.61 -8.286,30.339 -12.331,35.746C-15.405,39.857 -18.062,43.408 -19.136,45.235C-21.485,49.228 -24.862,51.612 -28.171,51.612L-62.624,51.612C-62.604,51.741 -62.593,51.811 -62.591,51.82L-63.084,51.904C-63.086,51.892 -63.103,51.788 -63.129,51.612L-141.296,51.612C-145.497,51.612 -145.572,47.107 -145.646,42.75C-145.653,42.323 -145.66,41.898 -145.671,41.48C-145.794,36.807 -145.685,7.965 -144.674,2.029C-143.873,-2.679 -136.975,-8.829 -124.17,-16.251C-114.566,-21.818 -105.589,-26.163 -98.894,-28.485C-87.312,-32.503 -72.516,-33.018 -60.919,-33.018L-57.421,-33.013C-57.233,-33.013 -57.024,-33.014 -56.821,-33.015C-56.776,-33.204 -56.749,-33.315 -56.747,-33.327L-56.261,-33.205C-56.264,-33.196 -56.28,-33.131 -56.308,-33.017C-53.89,-33.031 -50.558,-33.085 -46.778,-33.146C-40.978,-33.24 -34.403,-33.347 -28.828,-33.347C-23.22,-33.347 -19.662,-33.238 -17.953,-33.015C-12.446,-32.297 7.606,-5.085 8.333,-0.846C9.058,3.38 5.259,9.623 0,18.265M8.825,-0.931C8.001,-5.739 -12.214,-32.771 -17.889,-33.511C-19.619,-33.737 -23.197,-33.847 -28.828,-33.847C-34.407,-33.847 -40.983,-33.74 -46.786,-33.646C-51.181,-33.575 -54.976,-33.513 -57.421,-33.513L-60.919,-33.518C-72.555,-33.518 -87.405,-33 -99.058,-28.958C-105.782,-26.626 -114.79,-22.267 -124.421,-16.684C-137.36,-9.184 -144.34,-2.916 -145.167,1.945C-146.183,7.909 -146.294,36.812 -146.171,41.493C-146.16,41.91 -146.153,42.333 -146.146,42.759C-146.072,47.142 -145.988,52.112 -141.296,52.112L-28.171,52.112C-24.684,52.112 -21.146,49.636 -18.706,45.489C-17.645,43.685 -14.997,40.145 -11.931,36.046C-7.879,30.63 -2.837,23.89 0.22,18.867L0.427,18.525C5.741,9.79 9.581,3.479 8.825,-0.931" style="fill:rgb(240,148,0);fill-rule:nonzero;"/>
                </g>
                <g transform="matrix(1,0,0,1,304.435,103.485)">
                    <path d="M0,-36.083C-16.845,-36.083 -30.5,-22.428 -30.5,-5.583C-30.5,-3.675 -30.316,-1.811 -29.98,0L26.25,0C27.258,0 28.572,-0.142 30.05,-0.386C30.34,-2.076 30.5,-3.811 30.5,-5.583C30.5,-22.428 16.845,-36.083 0,-36.083" style="fill:rgb(255,139,0);fill-rule:nonzero;"/>
                </g>
                <g transform="matrix(1,0,0,1,111.102,71.0698)">
                    <path d="M0,32.416L26.314,32.416C26.649,30.605 26.833,28.741 26.833,26.833C26.833,9.988 13.178,-3.667 -3.667,-3.667C-20.512,-3.667 -34.167,9.988 -34.167,26.833C-34.167,30.058 -33.663,33.165 -32.735,36.083L-18.167,36.083C-12.833,36.083 -7.5,32.416 0,32.416" style="fill:rgb(255,139,0);fill-rule:nonzero;"/>
                </g>
                <g transform="matrix(0,-1,-1,0,107.435,71.6523)">
                    <path d="M-26.25,-26.25C-40.748,-26.25 -52.5,-14.498 -52.5,0C-52.5,14.498 -40.748,26.25 -26.25,26.25C-11.752,26.25 0,14.498 0,0C0,-14.498 -11.752,-26.25 -26.25,-26.25" style="fill:rgb(64,64,64);fill-rule:nonzero;"/>
                </g>
                <g transform="matrix(0,-1,-1,0,107.436,79.3293)">
                    <path d="M-18.573,-18.573C-28.831,-18.573 -37.146,-10.258 -37.146,0C-37.146,10.258 -28.831,18.573 -18.573,18.573C-8.315,18.573 0,10.258 0,0C0,-10.258 -8.315,-18.573 -18.573,-18.573" style="fill:rgb(196,196,196);fill-rule:nonzero;"/>
                </g>
                <g transform="matrix(0,-1,-1,0,304.435,71.6523)">
                    <path d="M-26.25,-26.25C-40.748,-26.25 -52.5,-14.498 -52.5,0C-52.5,14.498 -40.748,26.25 -26.25,26.25C-11.752,26.25 0,14.498 0,0C0,-14.498 -11.752,-26.25 -26.25,-26.25" style="fill:rgb(64,64,64);fill-rule:nonzero;"/>
                </g>
                <g transform="matrix(0,-1,-1,0,304.436,79.3293)">
                    <path d="M-18.573,-18.573C-28.831,-18.573 -37.146,-10.258 -37.146,0C-37.146,10.258 -28.831,18.573 -18.573,18.573C-8.315,18.573 0,10.258 0,0C0,-10.258 -8.315,-18.573 -18.573,-18.573" style="fill:rgb(196,196,196);fill-rule:nonzero;"/>
                </g>
                <g transform="matrix(1,0,0,1,53.5189,68.1523)">
                    <path d="M0,-3.75C0,-3.75 -3,-0.083 -3.583,1.667C-4.167,3.417 -3.583,5.417 -1.167,5.417L13,5.417C15.25,5.417 19.417,2 21.75,-0.75C24.083,-3.5 27.583,-8 26.583,-8.583C25.583,-9.167 12.667,-7.5 0,-3.75" style="fill:white;fill-rule:nonzero;"/>
                </g>
                <g transform="matrix(1,0,0,1,60.6131,97.3193)">
                    <path d="M0,-4.917C-0.834,-6.574 -2.854,-7.917 -4.511,-7.917L-16.011,-7.917L-16.011,-0.167C-16.011,0.66 -15.749,1.795 -15.27,3L0.989,3C2.646,3 3.312,1.657 2.478,0L0,-4.917Z" style="fill:rgb(64,64,64);fill-rule:nonzero;"/>
                </g>
                <g transform="matrix(1,0,0,1,122.102,16.4028)">
                    <path d="M0,27.583L9,27.583C10.833,27.583 13.833,27.25 16.667,25.5C19.5,23.75 32.146,14.25 40.146,9.562C48.146,4.875 52.678,2.502 53.396,2.187C54.677,1.625 55.239,0 53.583,0L48.323,0C48.323,0 23.083,10.083 0,27.583" style="fill:rgb(71,71,71);fill-rule:nonzero;"/>
                </g>
                <g transform="matrix(1,0,0,1,150.602,20.0688)">
                    <path d="M0,20.667C-1.458,21.806 -3.083,24.917 0,25.084C3.083,25.25 63.083,22.917 65.917,22.875C68.75,22.834 69.583,21.167 70.083,19.25C70.583,17.334 74.083,-0.166 74.25,-1.666C74.417,-3.166 74.417,-4.583 71.833,-4.583C69.25,-4.583 49.333,-3.833 38.167,-0.25C27,3.334 12.167,11.167 0,20.667" style="fill:rgb(71,71,71);fill-rule:nonzero;"/>
                </g>
                <g transform="matrix(1,0,0,1,232.269,37.3193)">
                    <path d="M0,-18.75C0,-18.75 -0.75,1.083 -0.75,2.083C-0.75,3.083 -0.251,4.75 1.666,4.75C3.583,4.75 64.25,3.333 66.75,3.25C69.25,3.167 70.416,2.333 70,0.583C69.583,-1.167 55.999,-17.667 44.832,-20.583C33.666,-23.5 4.582,-21.833 3.166,-21.833C1.75,-21.833 0.094,-21.24 0,-18.75" style="fill:rgb(71,71,71);fill-rule:nonzero;"/>
                </g>
                <g transform="matrix(1,0,0,1,309.605,40.986)">
                    <path d="M0,-22.363C-1.916,-21.547 -4.551,-20.425 -5.17,-20.167C-6.17,-19.75 -6.004,-18.084 -3.254,-16.5C-0.504,-14.917 8.33,-7.5 11.83,-4.25C15.33,-1 17.664,0 20.164,0L32.328,0C23.863,-6.881 11.056,-15.825 0,-22.363" style="fill:rgb(71,71,71);fill-rule:nonzero;"/>
                </g>
                <g transform="matrix(1,0,0,1,351.269,52.3198)">
                    <path d="M0,17.666L0,-0.167L-14.25,-0.167C-16.334,-0.167 -17.418,0.624 -16.334,3.603C-15.25,6.583 -9.918,14.582 -8.418,15.749C-6.918,16.916 -5.584,17.833 -3.668,17.833L0.018,17.833C0.014,17.776 0,17.723 0,17.666" style="fill:rgb(212,8,94);fill-rule:nonzero;"/>
                </g>
                <g transform="matrix(1,0,0,1,357.269,81.2463)">
                    <path d="M0,4.198L0,0L-4.609,0C-5.77,0 -6.709,0.94 -6.709,2.099C-6.709,3.258 -5.77,4.198 -4.609,4.198L0,4.198Z" style="fill:rgb(212,8,94);fill-rule:nonzero;"/>
                </g>
            </g>
        </g>
    </g>
    <defs>
        <linearGradient id="_Linear2" x1="0" y1="0" x2="1" y2="0" gradientUnits="userSpaceOnUse" gradientTransform="matrix(1,0,0,-1,0,-3.45273e-05)"><stop offset="0" style="stop-color:rgb(255,212,43);stop-opacity:1"/><stop offset="1" style="stop-color:rgb(255,186,0);stop-opacity:1"/></linearGradient>
    </defs>
</svg>
